<svg xmlns="http://www.w3.org/2000/svg" width="940" height="360" viewBox="0 0 940 360" font-family="Helvetica, Arial, sans-serif">
  <defs>
    <marker id="arrow" markerWidth="10" markerHeight="10" refX="8" refY="3" orient="auto" markerUnits="strokeWidth">
      <path d="M0,0 L8,3 L0,6 z" fill="#334155"/>
    </marker>
    <style>
      .box   { fill:#f1f5f9; stroke:#334155; stroke-width:1.5; rx:8; }
      .acc   { fill:#dbeafe; stroke:#1d4ed8; stroke-width:1.5; rx:8; }
      .eng   { fill:#dcfce7; stroke:#15803d; stroke-width:1.5; rx:8; }
      .out   { fill:#fef9c3; stroke:#a16207; stroke-width:1.5; rx:8; }
      .t     { font-size:13px; fill:#0f172a; text-anchor:middle; }
      .ts    { font-size:11px; fill:#475569; text-anchor:middle; }
      .lab   { font-size:12px; fill:#334155; text-anchor:middle; }
      .edge  { stroke:#334155; stroke-width:1.5; fill:none; marker-end:url(#arrow); }
      .title { font-size:15px; fill:#0f172a; font-weight:bold; text-anchor:middle; }
    </style>
  </defs>

  <text x="470" y="28" class="title">vs-token-safer: enforced, capped, zero-transmission data path</text>

  <!-- inputs -->
  <rect class="box" x="20"  y="70"  width="150" height="58" rx="8"/>
  <text x="95" y="94" class="t">Agent tool call</text>
  <text x="95" y="112" class="ts">search / nav / edit</text>

  <rect class="box" x="20"  y="150" width="150" height="58" rx="8"/>
  <text x="95" y="174" class="t">Bash grep / Grep</text>
  <text x="95" y="192" class="ts">rewritten by hook</text>

  <!-- hook -->
  <rect class="acc" x="210" y="150" width="150" height="58" rx="8"/>
  <text x="285" y="174" class="t">PreToolUse hook</text>
  <text x="285" y="192" class="ts">rewrite / block / warn</text>

  <!-- dispatch -->
  <rect class="acc" x="400" y="108" width="150" height="62" rx="8"/>
  <text x="475" y="133" class="t">runTool()</text>
  <text x="475" y="151" class="ts">dispatch + per-call root</text>

  <!-- lsp client -->
  <rect class="acc" x="400" y="200" width="150" height="62" rx="8"/>
  <text x="475" y="225" class="t">generic LSP client</text>
  <text x="475" y="243" class="ts">JSON-RPC / stdio</text>

  <!-- engines -->
  <rect class="eng" x="590" y="78"  width="160" height="44" rx="8"/>
  <text x="670" y="105" class="t">clangd (C/C++)</text>
  <rect class="eng" x="590" y="130" width="160" height="44" rx="8"/>
  <text x="670" y="157" class="t">Roslyn (C#)</text>
  <rect class="eng" x="590" y="182" width="160" height="44" rx="8"/>
  <text x="670" y="209" class="t">tsserver (JS/TS)</text>
  <rect class="eng" x="590" y="234" width="160" height="44" rx="8"/>
  <text x="670" y="261" class="t">pyright (Python)</text>
  <text x="670" y="298" class="lab">official engines — our glue only</text>

  <!-- token cap + output -->
  <rect class="out" x="790" y="108" width="130" height="62" rx="8"/>
  <text x="855" y="133" class="t">token-cap</text>
  <text x="855" y="151" class="ts">formatter</text>

  <rect class="out" x="790" y="200" width="130" height="62" rx="8"/>
  <text x="855" y="225" class="t">file:line</text>
  <text x="855" y="243" class="ts">no bodies</text>

  <!-- edges -->
  <path class="edge" d="M170,99  L398,128"/>
  <path class="edge" d="M170,179 L208,179"/>
  <path class="edge" d="M360,179 L398,150"/>
  <path class="edge" d="M550,139 L588,120"/>
  <path class="edge" d="M550,231 L588,210"/>
  <path class="edge" d="M475,170 L475,198"/>
  <path class="edge" d="M750,150 L788,139"/>
  <path class="edge" d="M855,170 L855,198"/>
  <path class="edge" d="M790,231 L555,231"/>
</svg>
